<svg fill="#E31034" xmlns="http://www.w3.org/2000/svg" viewBox="0 0 50 50" width="90" height="90"><path d="M25.009 1.982C12.322 1.982 2 12.304 2 24.991S12.322 48 25.009 48s23.009-10.321 23.009-23.009S37.696 1.982 25.009 1.982zm9.739 33.351a1.498 1.498 0 0 1-2.081.416C30.194 34.1 26 33 22.5 33.001c-3.714.002-6.498.914-6.526.923a1.5 1.5 0 1 1-.948-2.845c.132-.044 3.279-1.075 7.474-1.077 3.5-.002 8.368.942 11.832 3.251.69.46.876 1.391.416 2.08zm2.992-6.14a1.716 1.716 0 0 1-2.365.549c-4.484-2.794-9.092-3.385-13.062-3.35-4.482.04-8.066.895-8.127.913a1.716 1.716 0 1 1-.936-3.303c.277-.079 3.854-.959 8.751-1 4.465-.037 10.029.61 15.191 3.826.803.5 1.05 1.56.548 2.365zm2.985-7.18a2 2 0 0 1-2.738.712c-5.226-3.068-11.58-3.719-15.99-3.725h-.063c-5.333 0-9.44.938-9.481.948a1.999 1.999 0 0 1-.909-3.895C11.729 16.01 16.117 15 21.934 15h.069c4.905.007 12.011.753 18.01 4.275a2.002 2.002 0 0 1 .712 2.738z"/></svg>