<svg width="120" height="24" fill="#fff" xmlns="http://www.w3.org/2000/svg"><path d="M17.384 17.705q0 .536-.375.911l-1.821 1.821q-.375.375-.911.375t-.911-.375l-3.938-3.938-3.938 3.938q-.375.375-.911.375t-.911-.375l-1.821-1.821q-.375-.375-.375-.911t.375-.911l3.938-3.938-3.938-3.938q-.375-.375-.375-.911t.375-.911l1.821-1.821q.375-.375.911-.375t.911.375l3.938 3.938 3.938-3.938q.375-.375.911-.375t.911.375l1.821 1.821q.375.375.375.911t-.375.911l-3.938 3.938 3.938 3.938q.375.375.375.911zm40.554 3.362-8.732-8.719q-.496-.496-.496-1.212t.496-1.212l8.732-8.719q.496-.496 1.212-.496t1.212.496l1.004 1.004q.496.496.496 1.212t-.496 1.212l-6.509 6.509 6.509 6.496q.496.509.496 1.219t-.496 1.205l-1.004 1.004q-.496.496-1.212.496t-1.212-.496zm52.781-9.924q0 .696-.496 1.219l-8.732 8.719q-.496.496-1.205.496t-1.205-.496l-1.018-1.004q-.496-.522-.496-1.219 0-.71.496-1.205l6.509-6.509-6.509-6.496q-.496-.522-.496-1.219 0-.71.496-1.205l1.018-1.004q.482-.509 1.205-.509t1.205.509l8.732 8.719q.496.496.496 1.205z"/></svg>